<svg xmlns="http://www.w3.org/2000/svg" width="20" height="20" viewBox="0 0 20 20" fill="none">
  <path d="M19.0538 18.0462C19.3321 18.3244 19.3321 18.7756 19.0538 19.0538C18.7756 19.3321 18.3244 19.3321 18.0462 19.0538L14.6262 15.6338C14.3479 15.3556 14.3479 14.9044 14.6262 14.6262C14.9044 14.3479 15.3556 14.3479 15.6338 14.6262L19.0538 18.0462ZM8.28999 15.8425C4.11886 15.8425 0.737488 12.4611 0.737488 8.28999C0.737488 4.11886 4.11886 0.737488 8.28999 0.737488C12.4611 0.737488 15.8425 4.11886 15.8425 8.28999C15.8425 12.4611 12.4611 15.8425 8.28999 15.8425ZM8.28999 14.4175C11.6741 14.4175 14.4175 11.6741 14.4175 8.28999C14.4175 4.90586 11.6741 2.16249 8.28999 2.16249C4.90586 2.16249 2.16249 4.90586 2.16249 8.28999C2.16249 11.6741 4.90586 14.4175 8.28999 14.4175ZM4.77499 7.71999C4.77499 7.98232 4.56232 8.19499 4.29999 8.19499C4.03765 8.19499 3.82499 7.98232 3.82499 7.71999C3.82499 5.56884 5.56884 3.82499 7.71999 3.82499C7.98232 3.82499 8.19499 4.03765 8.19499 4.29999C8.19499 4.56232 7.98232 4.77499 7.71999 4.77499C6.09351 4.77499 4.77499 6.09351 4.77499 7.71999Z" fill="#463D61"/>
</svg>